<?xml version="1.0" encoding="utf-8"?>
<!-- Generator: Adobe Illustrator 25.2.3, SVG Export Plug-In . SVG Version: 6.00 Build 0)  -->
<svg version="1.1" id="Layer_1" xmlns="http://www.w3.org/2000/svg" xmlns:xlink="http://www.w3.org/1999/xlink" x="0px" y="0px"
	 viewBox="0 0 253.6 84.5" style="enable-background:new 0 0 253.6 84.5;" xml:space="preserve">
<style type="text/css">
	.st0{fill:none;}
	.st1{fill:#1D0D0E;}
	.st2{fill:#351211;}
	.st3{fill:#ED1C24;}
	.st4{fill:#010101;}
</style>
<g>
	<polygon class="st0" points="190.5,10.3 60.3,10.3 64.1,8.7 76.3,4.3 176.3,4.3 	"/>
	<polygon class="st0" points="206.8,17.3 166.1,34.5 88.3,34.5 64.1,25.8 44,17.3 46.3,16.3 46.3,16.3 204.7,16.4 204.7,16.4 	"/>
	<g>
		<polygon class="st1" points="186.1,4.3 67.5,4.3 81.8,0 173.9,0 		"/>
		<polygon class="st2" points="206,12.4 47.6,12.3 61.6,6.3 191.8,6.3 		"/>
	</g>
	<polygon class="st0" points="189.9,74.2 59.7,74.2 63.5,75.8 75.6,80.2 175.7,80.2 	"/>
	<polygon class="st0" points="206.2,67.3 165.5,50 87.7,50 63.5,58.7 43.3,67.3 45.6,68.3 45.7,68.3 204.1,68.2 204.1,68.2 	"/>
	<g>
		<polygon class="st1" points="186.1,80.2 67.5,80.2 81.8,84.5 173.9,84.5 		"/>
		<polygon class="st2" points="206,72.2 47.6,72.3 61.6,78.2 191.8,78.2 		"/>
	</g>
	<g>
		<g>
			<g>
				<polygon class="st3" points="233.9,42.5 200.6,55.4 193.6,55.4 221.7,42.5 193.6,29.6 200.6,29.6 				"/>
				<polygon class="st2" points="221.7,42.5 193.6,55.4 185.3,55.4 208.2,42.5 185.3,29.6 193.6,29.6 				"/>
				<polygon class="st1" points="208.2,42.5 185.3,55.4 176.7,55.4 196.2,42.5 176.7,29.6 185.3,29.6 				"/>
			</g>
			<g>
				<polygon class="st3" points="31.9,42.5 60,55.4 53,55.4 19.7,42.5 53,29.6 60,29.6 				"/>
				<polygon class="st2" points="45.3,42.5 68.3,55.4 60,55.4 31.9,42.5 60,29.6 68.3,29.6 				"/>
				<polygon class="st1" points="57.4,42.5 76.9,55.4 68.3,55.4 45.3,42.5 68.3,29.6 76.9,29.6 				"/>
			</g>
			<g>
				<path class="st4" d="M91.4,29v9h-0.7c-0.6-2.3-1.6-4.1-3.1-5.4c-1.5-1.2-3.2-1.9-5.2-1.9c-1.6,0-3.1,0.5-4.4,1.4
					c-1.3,0.9-2.3,2.1-3,3.6c-0.8,1.9-1.2,4-1.2,6.4c0,2.3,0.3,4.4,0.9,6.3c0.6,1.9,1.5,3.3,2.7,4.3c1.2,1,2.9,1.5,4.8,1.5
					c1.6,0,3.1-0.4,4.5-1.1c1.4-0.7,2.8-1.9,4.3-3.7v2.2c-1.4,1.5-3,2.6-4.5,3.3c-1.6,0.7-3.4,1-5.5,1c-2.8,0-5.2-0.6-7.3-1.7
					c-2.1-1.1-3.8-2.7-5-4.8c-1.2-2.1-1.7-4.3-1.7-6.6c0-2.5,0.6-4.8,1.9-7c1.3-2.2,3-3.9,5.2-5.1c2.2-1.2,4.5-1.8,7-1.8
					c1.8,0,3.7,0.4,5.8,1.2c1.2,0.5,1.9,0.7,2.2,0.7c0.4,0,0.8-0.1,1.1-0.4c0.3-0.3,0.5-0.8,0.6-1.4H91.4z"/>
				<path class="st4" d="M108.6,29.2c4.1-0.2,7.5,1,10,3.6c2.6,2.6,3.9,5.7,3.9,9.6c0,3.3-1,6.2-2.9,8.6c-2.5,3.3-6.1,5-10.8,5
					c-4.6,0-8.2-1.6-10.8-4.7c-2-2.5-3-5.4-3-8.9c0-3.8,1.3-7,3.9-9.6C101.6,30.3,104.8,29.1,108.6,29.2z M108.8,30.5
					c-2.4,0-4.2,1.2-5.4,3.6c-1,2-1.5,4.8-1.5,8.5c0,4.4,0.8,7.7,2.3,9.8c1.1,1.5,2.6,2.2,4.5,2.2c1.3,0,2.4-0.3,3.3-1
					c1.1-0.8,2-2.1,2.6-3.9c0.6-1.8,0.9-4.1,0.9-7c0-3.4-0.3-6-1-7.7c-0.6-1.7-1.4-2.9-2.4-3.6C111.2,30.8,110.1,30.5,108.8,30.5z"
					/>
				<path class="st4" d="M134.1,55.4v-0.7h0.9c0.7,0,1.3-0.1,1.7-0.4c0.4-0.2,0.7-0.6,0.9-1c0.1-0.3,0.2-1.1,0.2-2.4V34
					c0-1.3-0.1-2.1-0.2-2.5s-0.4-0.6-0.8-0.9c-0.4-0.2-1-0.4-1.7-0.4h-0.9v-0.7h11.6c3.1,0,5.6,0.4,7.4,1.3c2.3,1,4,2.6,5.2,4.7
					c1.2,2.1,1.8,4.4,1.8,7.1c0,1.8-0.3,3.5-0.9,5c-0.6,1.5-1.3,2.8-2.3,3.8c-0.9,1-2,1.8-3.2,2.4c-1.2,0.6-2.7,1.1-4.4,1.4
					c-0.8,0.2-2,0.2-3.7,0.2H134.1z M144,31.1v20.1c0,1.1,0.1,1.7,0.2,2s0.3,0.4,0.5,0.6c0.3,0.2,0.8,0.3,1.5,0.3
					c2.1,0,3.7-0.7,4.9-2.2c1.5-2,2.3-5,2.3-9.1c0-3.3-0.5-6-1.6-7.9c-0.8-1.5-1.9-2.6-3.2-3.2C147.6,31.2,146.1,31.1,144,31.1z"/>
				<path class="st4" d="M172.4,31.1v10.5h0.5c1.6,0,2.8-0.5,3.6-1.5s1.2-2.5,1.4-4.6h0.7V49h-0.7c-0.2-1.5-0.5-2.7-1-3.6
					c-0.5-0.9-1.1-1.6-1.7-1.9c-0.6-0.3-1.6-0.5-2.8-0.5v7.3c0,1.4,0.1,2.3,0.2,2.6c0.1,0.3,0.3,0.6,0.7,0.8s0.9,0.3,1.6,0.3h1.5
					c2.4,0,4.3-0.6,5.8-1.7c1.5-1.1,2.5-2.8,3.1-5.1h0.7l-1.2,8.2h-22.3v-0.7h0.9c0.7,0,1.4-0.1,1.8-0.4c0.3-0.2,0.6-0.5,0.8-0.9
					c0.1-0.3,0.2-1.1,0.2-2.4V34c0-1.2,0-1.9-0.1-2.2c-0.1-0.4-0.4-0.8-0.7-1c-0.5-0.4-1.1-0.5-2-0.5h-0.9v-0.7h21.6v7.6h-0.7
					c-0.4-1.9-0.9-3.2-1.6-4c-0.7-0.8-1.6-1.4-2.8-1.8c-0.7-0.2-2-0.3-4-0.3H172.4z"/>
			</g>
		</g>
		<path class="st3" d="M225.9,22.4l-3.4-2.5l-5-3.6h-5.9H210H44.1l-0.9,0.3l0.4-0.3H36l-5,3.6l-1.8,1.3l0,0l-1.5,1l-0.1,0.1L0,42.3
			l27.6,19.9l0.1,0.1l2,1.4l0.8,0.6l0,0l5.5,3.9h7.5h0.1H210h1.1h6.5l5.5-3.9l0,0l2.9-2.1l27.6-19.9L225.9,22.4z M57.2,62.2l-21.8,0
			l-0.1-0.1h0L8.2,42.3l27.2-19.9l0.1-0.1h0l22.3,0h0l65.9,0v39.9L57.2,62.2L57.2,62.2z M218.2,62.2L218.2,62.2l-22,0h0l-58.3,0
			l-5.9,0l-2.3,0l0.1-39.9l2.2,0h6l58.8,0h0l21.4,0l27.2,19.9L218.2,62.2z"/>
	</g>
</g>
</svg>
